#!OML:ASF E:\acrobat2\Project_11_07_03\Capture day 1\Session 1\Acrobat.ASF
:FULLY-SPECIFIED
:DEGREES
314
root 6.93211 18.2285 -2.37518 3.31556 1.29485 0.420689
lowerback -1.34454 -1.4306 4.7724
upperback 2.84266 -2.10158 1.26979
thorax 3.5652 -0.931587 -1.45216
lowerneck 9.58701 -14.5263 -10.172
upperneck 0.340762 -20.2696 4.49586
head 0.0709897 -10.2234 3.42749
rclavicle 1.88845e-015 -1.19271e-014
rhumerus -30.56 13.0534 -81.9302
rradius 23.8351
rwrist 2.73082
rhand -6.93044 -36.7349
rfingers 7.12502
rthumb 18.9377 -65.833
lclavicle 1.88845e-015 -1.19271e-014
lhumerus -31.266 -0.13714 82.2406
lradius 30.2502
lwrist 13.1666
lhand -14.5975 -16.8164
lfingers 7.12502
lthumb 11.553 12.8452
rfemur 2.02175 4.66054 20.0128
rtibia 5.64221
rfoot -27.2064 -23.2463
rtoes 6.61131
lfemur -23.8793 6.70152 -10.4707
ltibia 39.0742
lfoot 0.23682 -7.89651
ltoes 36.3259
315
root 6.9529 18.2296 -2.34252 3.41877 1.30723 0.465451
lowerback -1.33847 -1.41198 4.72639
upperback 2.82411 -2.07414 1.26934
thorax 3.54544 -0.919911 -1.4255
lowerneck 9.61177 -14.5169 -10.1992
upperneck 0.142526 -20.2612 4.57247
head 0.0124788 -10.2168 3.46941
rclavicle -4.05521e-014 1.35174e-014
rhumerus -30.538 13.0032 -81.9244
rradius 23.7821
rwrist 2.78468
rhand -6.91889 -36.8132
rfingers 7.12502
rthumb 18.9488 -65.9102
lclavicle -4.05521e-014 1.35174e-014
lhumerus -31.4197 -0.0201067 82.131
lradius 30.4269
lwrist 13.1827
lhand -14.5682 -16.875
lfingers 7.12502
lthumb 11.5812 12.785
rfemur 2.08895 4.78809 19.9141
rtibia 5.54583
rfoot -27.3084 -23.2913
rtoes 6.89679
lfemur -24.1079 6.52274 -10.5564
ltibia 38.6392
lfoot -0.0109494 -8.07404
ltoes 35.4482
316
root 6.97357 18.2309 -2.30852 3.53541 1.31993 0.51627
lowerback -1.33296 -1.39895 4.67054
upperback 2.79394 -2.05333 1.26513
thorax 3.51367 -0.912163 -1.39733
lowerneck 9.64488 -14.5002 -10.2738
upperneck -0.0452429 -20.2483 4.69914
head -0.0337902 -10.2096 3.53402
rclavicle -9.24349e-015 -2.06736e-014
rhumerus -30.5171 12.913 -81.918
rradius 23.7315
rwrist 2.82559
rhand -6.90088 -36.8873
rfingers 7.12502
rthumb 18.9661 -65.9826
lclavicle -9.24349e-015 -2.06736e-014
lhumerus -31.5902 0.134986 81.9978
lradius 30.5538
lwrist 13.1697
lhand -14.5055 -16.9308
lfingers 7.12502
lthumb 11.6416 12.7258
rfemur 2.14918 4.92819 19.8085
rtibia 5.44124
rfoot -27.4146 -23.3577
rtoes 7.17079
lfemur -24.3021 6.32133 -10.6395
ltibia 38.0639
lfoot -0.330994 -8.20609
ltoes 34.7659
317
root 6.99432 18.2326 -2.27365 3.66606 1.33624 0.566288
lowerback -1.32885 -1.3848 4.61884
upperback 2.75421 -2.03061 1.25227
thorax 3.4724 -0.90353 -1.38022
lowerneck 9.68063 -14.4817 -10.3607
upperneck -0.209393 -20.2341 4.84943
head -0.06893 -10.2029 3.60682
rclavicle -7.45443e-015 5.56597e-015
rhumerus -30.4994 12.7726 -81.9199
rradius 23.6803
rwrist 2.83574
rhand -6.90019 -36.9576
rfingers 7.12502
rthumb 18.9668 -66.0529
lclavicle -7.45443e-015 5.56597e-015
lhumerus -31.7421 0.284918 81.85
lradius 30.6023
lwrist 13.1484
lhand -14.4295 -17.001
lfingers 7.12502
lthumb 11.715 12.6514
rfemur 2.20014 5.07481 19.7031
rtibia 5.32897
rfoot -27.5102 -23.4477
rtoes 7.42117
lfemur -24.4686 6.0811 -10.7135
ltibia 37.36
lfoot -0.70909 -8.28034
ltoes 34.4393
318
root 7.01513 18.2346 -2.23819 3.81112 1.35005 0.619858
lowerback -1.33082 -1.36809 4.56412
upperback 2.71216 -2.0044 1.22914
thorax 3.43206 -0.893069 -1.37202
lowerneck 9.70972 -14.4628 -10.443
upperneck -0.352786 -20.2179 5.00433
head -0.0962939 -10.196 3.67876
rclavicle -2.18663e-015 -7.95139e-016
rhumerus -30.484 12.5797 -81.9275
rradius 23.6441
rwrist 2.82407
rhand -6.9088 -37.0162
rfingers 7.12502
rthumb 18.9585 -66.1122
lclavicle -2.18663e-015 -7.95139e-016
lhumerus -31.8539 0.42724 81.6868
lradius 30.5595
lwrist 13.1121
lhand -14.3437 -17.1038
lfingers 7.12502
lthumb 11.7977 12.544
rfemur 2.24221 5.24634 19.5967
rtibia 5.20805
rfoot -27.5999 -23.57
rtoes 7.676
lfemur -24.6149 5.80605 -10.7851
ltibia 36.5527
lfoot -1.14161 -8.29649
ltoes 34.3358
319
root 7.03629 18.2366 -2.20152 3.96106 1.35589 0.673784
lowerback -1.34243 -1.35366 4.50309
upperback 2.67584 -1.98176 1.20179
thorax 3.40296 -0.884148 -1.36513
lowerneck 9.73975 -14.4379 -10.5146
upperneck -0.492617 -20.1929 5.14778
head -0.125902 -10.1844 3.74597
rclavicle -9.93923e-017 2.22639e-014
rhumerus -30.4676 12.3644 -81.9362
rradius 23.6394
rwrist 2.79167
rhand -6.90102 -37.0579
rfingers 7.12502
rthumb 18.966 -66.1532
lclavicle -9.93923e-017 2.22639e-014
lhumerus -31.9468 0.580493 81.5063
lradius 30.4587
lwrist 13.0516
lhand -14.2485 -17.22
lfingers 7.12502
lthumb 11.8895 12.4225
rfemur 2.29113 5.44263 19.4947
rtibia 5.07545
rfoot -27.6779 -23.7226
rtoes 7.92208
lfemur -24.7285 5.51316 -10.8538
ltibia 35.6456
lfoot -1.60564 -8.25538
ltoes 34.2239
320
root 7.05825 18.238 -2.16285 4.10392 1.35573 0.720374
lowerback -1.35731 -1.34647 4.44274
upperback 2.64474 -1.96924 1.17545
thorax 3.38058 -0.880029 -1.35812
lowerneck 9.76379 -14.4063 -10.5723
upperneck -0.622792 -20.1571 5.2641
head -0.156871 -10.1669 3.80201
rclavicle 1.09332e-015 -1.59028e-015
rhumerus -30.4554 12.1578 -81.9499
rradius 23.6639
rwrist 2.73194
rhand -6.88071 -37.0582
rfingers 7.12502
rthumb 18.9855 -66.1516
lclavicle 1.09332e-015 -1.59028e-015
lhumerus -32.0451 0.754254 81.3071
lradius 30.3199
lwrist 12.9654
lhand -14.1481 -17.3348
lfingers 7.12502
lthumb 11.9863 12.302
rfemur 2.36552 5.63669 19.4026
rtibia 4.92725
rfoot -27.7228 -23.89
rtoes 8.13126
lfemur -24.7924 5.2231 -10.9167
ltibia 34.6336
lfoot -2.05734 -8.15336
ltoes 34.0469
321
root 7.08082 18.2384 -2.12208 4.23932 1.34714 0.749519
lowerback -1.37071 -1.34667 4.38592
upperback 2.6149 -1.96694 1.15889
thorax 3.35835 -0.881006 -1.34337
lowerneck 9.77433 -14.3705 -10.6414
upperneck -0.748355 -20.1161 5.36987
head -0.184607 -10.1464 3.85506
rclavicle 4.96962e-015 -3.97569e-015
rhumerus -30.4557 11.982 -81.9673
rradius 23.7196
rwrist 2.63945
rhand -6.85893 -37.0252
rfingers 7.12502
rthumb 19.0065 -66.1166
lclavicle 4.96962e-015 -3.97569e-015
lhumerus -32.1452 0.968108 81.091
lradius 30.1366
lwrist 12.848
lhand -14.048 -17.4084
lfingers 7.12502
lthumb 12.0828 12.2227
rfemur 2.46317 5.83738 19.3344
rtibia 4.76564
rfoot -27.739 -24.0719
rtoes 8.32841
lfemur -24.8058 4.95598 -10.9615
ltibia 33.5262
lfoot -2.46463 -7.99341
ltoes 33.8518
322
root 7.10391 18.2376 -2.07907 4.36784 1.33058 0.761094
lowerback -1.3814 -1.35223 4.33167
upperback 2.58389 -1.97204 1.15391
thorax 3.33333 -0.885812 -1.31831
lowerneck 9.781 -14.3325 -10.7323
upperneck -0.8868 -20.0738 5.48183
head -0.213213 -10.1252 3.91378
rclavicle 1.09332e-015 1.35174e-014
rhumerus -30.4733 11.8667 -81.9945
rradius 23.8092
rwrist 2.48634
rhand -6.83943 -36.9964
rfingers 7.12502
rthumb 19.0252 -66.0859
lclavicle 1.09332e-015 1.35174e-014
lhumerus -32.2422 1.21546 80.8646
lradius 29.9007
lwrist 12.7121
lhand -13.9524 -17.4144
lfingers 7.12502
lthumb 12.175 12.2113
rfemur 2.58357 6.0517 19.291
rtibia 4.58872
rfoot -27.7349 -24.2661
rtoes 8.53931
lfemur -24.7655 4.72163 -10.9911
ltibia 32.3197
lfoot -2.83123 -7.76654
ltoes 33.3817
323
root 7.12756 18.2355 -2.03393 4.49427 1.31446 0.776852
lowerback -1.39489 -1.3607 4.26807
upperback 2.55157 -1.9808 1.14729
thorax 3.30857 -0.892647 -1.28993
lowerneck 9.77859 -14.2988 -10.822
upperneck -1.03145 -20.0362 5.59293
head -0.242231 -10.1062 3.97152
rclavicle -6.36111e-015 2.06736e-014
rhumerus -30.5032 11.7927 -82.0369
rradius 23.9229
rwrist 2.27811
rhand -6.82828 -36.9784
rfingers 7.12502
rthumb 19.036 -66.0669
lclavicle -6.36111e-015 2.06736e-014
lhumerus -32.3297 1.46377 80.6299
lradius 29.6065
lwrist 12.5811
lhand -13.8594 -17.376
lfingers 7.12502
lthumb 12.2647 12.2444
rfemur 2.72117 6.26343 19.2422
rtibia 4.39872
rfoot -27.7198 -24.4611
rtoes 8.75354
lfemur -24.6822 4.51002 -11.0352
ltibia 31.0252
lfoot -3.15413 -7.47335
ltoes 32.5409
